# xmcd
#
# Track frame offsets:
# 150
# 10730
# 23872
# 36177
# 48415
# 60000
# 72025
# 84360
# 97182
# 109435
# 120635
# 131892
# 144567
# 156467
#
# Disc length: 2238 seconds
#
# Revision: 0
# Processed by: cddbd v1.4PL0 Copyright (c) Steve Scherf et al.
# Submitted via: Audion 3.0.2 (http://www.panic.com/audion/)
#
DISCID=bd08bc0e
DTITLE=LIGHTNIN' HOPKINS - SINGS THE BLUES
DYEAR=1900
DGENRE=
TTITLE0=DOWN BABY
TTITLE1=THINKIN' AND WORRYIN'
TTITLE2=MISS LORETTA
TTITLE3=MISTRETED BLUES
TTITLE4=CAN'T YOU DO LIKE YOU USED TO DO
TTITLE5=WEST COAST BLUES
TTITLE6=LITTLE MAMA BLUES
TTITLE7=PICTURE ON THE WALL
TTITLE8=SHOTGUN
TTITLE9=ABILENE
TTITLE10=DADDY WILL BE HOME ONE DAY
TTITLE11=SO LONG
TTITLE12=SEE SEE RIDER
TTITLE13=BABY YOU ARE NOT GOING TO MAKE A FOOL OUT OF ME
EXTD=
EXTT0=
EXTT1=
EXTT2=
EXTT3=
EXTT4=
EXTT5=
EXTT6=
EXTT7=
EXTT8=
EXTT9=
EXTT10=
EXTT11=
EXTT12=
EXTT13=
PLAYORDER=
